<svg width="153" height="45" viewBox="0 0 153 45" fill="none" xmlns="http://www.w3.org/2000/svg">
<path d="M64.2971 10.1539C53.0131 10.1539 50.0078 17.8338 50.0078 22.3806V44.2836H56.4203V18.0057C56.4394 16.8117 57.4061 15.8374 58.6025 15.8374H71.0637V10.1539H64.2971Z" fill="white"/>
<path d="M16.0695 44.9904C24.2813 44.9904 29.7463 41.0645 31.5073 33.9195H25.382V37.3297C25.382 38.5237 24.4057 39.498 23.2094 39.498H8.92005C7.7237 39.498 6.74747 38.5237 6.74747 37.3297V17.1842C6.74747 15.9902 7.7237 15.0159 8.92005 15.0159H23.2094C24.4057 15.0159 25.382 15.9902 25.382 17.1842V21.0624H31.6126C29.9664 13.5736 24.4632 9.45659 16.0695 9.45659C5.85738 9.46614 0 15.4744 0 25.9531V28.5799C0 39.0204 5.85738 45 16.0695 45V44.9904Z" fill="white"/>
<path d="M89.0761 44.9904C97.2879 44.9904 102.753 41.0645 104.514 33.9195H98.3886V37.3297C98.3886 38.5237 97.4124 39.498 96.216 39.498H81.9267C80.7303 39.498 79.7541 38.5237 79.7541 37.3297V17.1842C79.7541 15.9902 80.7303 15.0159 81.9267 15.0159H96.216C97.4124 15.0159 98.3886 15.9902 98.3886 17.1842V21.0624H104.619C102.973 13.5736 97.4698 9.45659 89.0761 9.45659C78.864 9.45659 73.0066 15.4649 73.0066 25.9435V28.5704C73.0066 39.0108 78.864 44.9904 89.0761 44.9904Z" fill="white"/>
<path d="M43.8825 10.1539H37.4508V44.2836H43.8825V10.1539Z" fill="white"/>
<path d="M115.645 0H109.213V44.2836H115.645V0Z" fill="white"/>
<path d="M136.94 44.9904C145.181 44.9904 150.646 41.0454 152.397 33.8527H146.253V37.3297C146.253 38.5237 145.276 39.498 144.08 39.498H129.791C128.594 39.498 127.618 38.5237 127.618 37.3297V29.4683H152.981L153 29.4492V25.9531C153 15.4744 147.143 9.46614 136.931 9.46614C126.718 9.46614 120.861 15.4744 120.861 25.9531V28.5799C120.861 39.0204 126.718 45 136.931 45L136.94 44.9904ZM129.8 15.0255H144.09C145.286 15.0255 146.262 15.9998 146.262 17.1938V25.2844H127.628V17.1938C127.628 15.9998 128.604 15.0255 129.8 15.0255Z" fill="white"/>
<path d="M43.8825 0H37.4508V5.99873H43.8825V0Z" fill="white"/>
</svg>
